<?xml version="1.0" encoding="utf-8"?>
<!-- Generator: Adobe Illustrator 23.0.0, SVG Export Plug-In . SVG Version: 6.00 Build 0)  -->
<svg version="1.1" id="Capa_1" xmlns="http://www.w3.org/2000/svg" xmlns:xlink="http://www.w3.org/1999/xlink" x="0px" y="0px"
	 viewBox="0 0 792 397.9" style="enable-background:new 0 0 792 397.9;" xml:space="preserve">
<style type="text/css">
	.st0{fill:#FFFFFF;}
</style>
<g>
	<path class="st0" d="M611.2,105.1C609.4,49.2,559,3.9,497.6,3.9h-7.3c-37.7,0-71.2,17-91.9,43.1c-1.1,1.5-3,2.3-4.9,2.3
		c-1.9,0.1-3.8-0.8-4.9-2.3C368,21,334.5,3.9,296.8,3.9h-7.3c-61.4,0-111.9,45.2-113.6,101.1c-0.1,1-0.1,2-0.1,3
		c0,1.2,0.1,2.3,0.1,3.5c1.1,31.5,17.8,59.7,43.1,78.1c4.2,3.9,3,9.9,1.6,12.9c-9.1,16.5-14.1,34.7-14.1,53.7
		c0,76.4,81.5,138.9,181.3,138.9h11.5c99.7,0,181.3-62.5,181.3-138.9c0-19-5.1-37.1-14.1-53.7c-1.4-3-2.6-9,1.6-12.9
		c25.3-18.4,42-46.6,43.1-78.1c0.1-1.2,0.1-2.3,0.1-3.5C611.3,107.1,611.2,106.1,611.2,105.1z M415.7,219.2
		c12.4-7.3,25-9.6,27.5-4.6c3.7,7.4-12.1,2.4-21.6,14.6c-8.9,11.5-18.8,19.4-23.2,11.9C395.6,236.3,403.4,226.5,415.7,219.2z
		 M371.4,219.2c12.4,7.3,20.2,17.1,17.3,21.8c-4.4,7.5-14.3-0.5-23.2-11.9c-9.4-12.2-25.4-7.1-21.6-14.6
		C346.4,209.6,359,211.9,371.4,219.2z M242.2,111.9c18-36.3,65.7-36.7,98.8-26.2c13.4,4.3,10.3,23.2-1,24.9
		c2.3,6.8,3.6,14.2,3.6,22.2c0,29.3-17.3,52.9-38.8,52.9s-38.8-23.7-38.8-52.9c0-4.6,0.5-9.2,1.3-13.5c-1.2,1.6-2.4,3.4-3.3,5.4
		C256.8,139.3,235.1,126.5,242.2,111.9z M523.7,314.1c-77.8,59-188.4,69.3-262.9-2c-11.8-11.3,6.1-29.1,17.8-17.9
		c18.1,17.3,43,30.3,66.9,37.1c60.4,17.2,116.5-2,165.4-39.1C523.9,282.4,536.5,304.4,523.7,314.1z M523.1,124.7
		c-1-2-2.1-3.8-3.3-5.4c0.8,4.3,1.3,8.8,1.3,13.5c0,29.3-17.4,52.9-38.8,52.9c-21.4,0-38.8-23.7-38.8-52.9c0-7.9,1.3-15.4,3.6-22.2
		c-11.3-1.7-14.5-20.6-1.1-24.9c33.1-10.5,80.9-10.1,98.8,26.2C552.1,126.5,530.3,139.3,523.1,124.7z"/>
	<path class="st0" d="M105.2,194.4c0,42.9,30,78.2-16.8,78.2h-5.4c-46.8,0-78.6-35.1-78.6-78s31.8-78,78.6-78h5.4
		C135.2,116.6,105.2,151.5,105.2,194.4z"/>
	<path class="st0" d="M682,194.9c0-42.9-30-78.2,16.8-78.2h5.4c46.8,0,78.6,35.1,78.6,78s-31.8,78-78.6,78h-5.4
		C651.9,272.7,682,237.8,682,194.9z"/>
</g>
</svg>
